<?xml version="1.0" standalone="no"?>
<!DOCTYPE svg PUBLIC "-//W3C//DTD SVG 20010904//EN"
 "http://www.w3.org/TR/2001/REC-SVG-20010904/DTD/svg10.dtd">
<svg version="1.0" xmlns="http://www.w3.org/2000/svg"
 width="512.000000pt" height="512.000000pt" viewBox="0 0 512.000000 512.000000"
 preserveAspectRatio="xMidYMid meet">
<metadata>
Created by potrace 1.15, written by Peter Selinger 2001-2017
</metadata>
<g transform="translate(0.000000,512.000000) scale(0.100000,-0.100000)"
fill="#777" stroke="none">
<path d="M4700 5015 c-264 -40 -668 -129 -995 -219 -88 -25 -161 -43 -163 -41
-2 2 -14 42 -27 90 -14 48 -26 89 -27 90 -2 1 -71 -19 -154 -43 l-152 -46 24
-85 c13 -47 24 -89 24 -93 0 -4 -73 -31 -162 -59 -729 -231 -1306 -490 -1275
-572 12 -32 56 -39 187 -33 288 14 868 136 1481 312 10 3 23 -6 33 -22 18 -26
17 -26 -25 -62 -49 -42 -89 -121 -89 -178 0 -86 50 -173 122 -210 24 -12 28
-21 28 -54 0 -24 -5 -40 -12 -40 -57 0 -423 -55 -465 -70 -107 -38 -190 -134
-214 -249 -9 -45 -7 -84 10 -224 12 -94 24 -173 26 -177 3 -4 26 -11 52 -15
72 -10 269 -78 353 -120 41 -21 114 -63 162 -94 l88 -56 0 -52 c0 -54 -8 -64
-30 -39 -6 8 -55 43 -108 77 -334 217 -753 284 -1142 184 -167 -43 -369 -143
-515 -254 -213 -163 -399 -427 -484 -689 -54 -165 -65 -241 -66 -442 0 -244
25 -366 117 -577 l40 -92 -191 -216 c-105 -118 -200 -233 -211 -255 -26 -52
-27 -138 -1 -188 55 -106 181 -151 287 -103 37 17 179 167 357 376 l25 30 43
-40 c332 -305 800 -434 1244 -344 243 49 469 160 663 326 l50 43 162 -185
c187 -213 211 -230 314 -223 119 7 201 94 201 213 0 82 -18 109 -230 349 -96
109 -175 200 -175 203 0 2 11 26 25 53 226 445 183 1012 -109 1438 -53 77 -56
85 -56 142 l0 60 33 0 c72 0 896 110 940 126 102 35 197 157 212 270 6 45 -33
419 -66 629 -27 173 -145 289 -308 302 -46 3 -176 -9 -428 -41 -198 -25 -366
-46 -372 -46 -18 0 -13 86 5 101 34 28 64 107 64 167 0 74 -19 121 -68 170
-49 48 -107 151 -90 157 7 3 132 43 278 91 572 186 1011 371 1138 479 48 41
52 57 20 79 -33 24 -210 19 -398 -9z"/>
<path d="M263 3670 c-71 -35 -136 -102 -165 -167 -15 -33 -31 -133 -59 -352
-44 -350 -44 -355 -23 -431 28 -101 127 -203 222 -230 37 -10 1093 -143 1097
-138 1 2 21 30 45 63 151 210 351 376 586 486 115 55 104 35 125 214 10 86 9
109 -5 162 -8 35 -26 80 -40 101 -34 55 -105 114 -162 135 -60 23 -1360 187
-1480 187 -70 0 -89 -4 -141 -30z"/>
</g>
</svg>
