<?xml version="1.0" standalone="no"?>
<!DOCTYPE svg PUBLIC "-//W3C//DTD SVG 20010904//EN"
 "http://www.w3.org/TR/2001/REC-SVG-20010904/DTD/svg10.dtd">
<svg version="1.0" xmlns="http://www.w3.org/2000/svg"
 width="234.000000pt" height="234.000000pt" viewBox="0 0 234.000000 234.000000"
 preserveAspectRatio="xMidYMid meet">
<metadata>
Created by potrace 1.15, written by Peter Selinger 2001-2017
</metadata>
<g transform="translate(0.000000,234.000000) scale(0.100000,-0.100000)"
fill="#fff" stroke="none">
<path d="M931 2200 c-106 -15 -199 -47 -238 -84 l-36 -33 12 -184 c15 -236 58
-864 70 -1039 11 -144 25 -198 71 -270 29 -45 47 -124 52 -225 l3 -50 306 -3
306 -2 11 107 c8 71 19 119 32 142 74 131 79 155 94 416 4 61 11 169 16 240 6
72 21 294 35 495 24 356 24 366 6 390 -25 34 -92 67 -176 86 -82 19 -462 28
-564 14z m42 -421 c60 -65 17 -159 -73 -159 -108 0 -136 142 -37 186 42 18 76
10 110 -27z m550 0 c86 -94 -53 -220 -144 -130 -50 51 -34 127 35 157 41 18
75 10 109 -27z m-557 -354 c40 -16 68 -70 58 -110 -9 -38 -59 -75 -100 -75
-47 0 -82 25 -95 69 -14 48 8 96 54 116 40 18 41 18 83 0z m537 -25 c86 -95
-53 -222 -144 -131 -48 48 -35 125 25 156 42 21 85 12 119 -25z m-470 -380
c30 -34 34 -67 12 -110 -19 -37 -43 -50 -90 -50 -84 0 -128 106 -67 162 15 14
34 28 42 31 29 12 75 -3 103 -33z m402 26 c69 -29 82 -112 23 -161 -59 -50
-144 -20 -163 56 -9 35 17 84 53 103 34 19 45 19 87 2z"/>
<path d="M535 1838 c-24 -76 -25 -122 -3 -189 l22 -69 49 0 49 0 -6 108 c-10
165 -9 162 -62 162 -27 0 -46 -5 -49 -12z"/>
<path d="M1716 1823 c-3 -15 -8 -76 -12 -135 l-6 -108 49 0 49 0 22 68 c20 63
21 74 9 133 l-13 64 -46 3 c-44 3 -46 1 -52 -25z"/>
<path d="M551 1420 c-15 -69 -14 -96 8 -160 l18 -55 49 0 c27 0 49 5 49 10 0
6 -4 65 -9 133 l-8 122 -48 0 -48 0 -11 -50z"/>
<path d="M1684 1348 c-5 -68 -9 -127 -9 -133 0 -5 22 -10 49 -10 l49 0 18 55
c22 64 23 91 8 160 l-11 50 -48 0 -48 0 -8 -122z"/>
<path d="M571 1024 c-11 -60 -10 -71 11 -135 l22 -69 49 0 49 0 -5 63 c-4 34
-9 95 -13 135 l-6 72 -47 0 -48 0 -12 -66z"/>
<path d="M1666 1018 c-4 -40 -9 -101 -13 -135 l-5 -63 49 0 49 0 22 69 c21 64
22 75 11 135 l-12 66 -48 0 -47 0 -6 -72z"/>
<path d="M860 185 l0 -75 313 2 312 3 0 70 0 70 -312 3 -313 2 0 -75z"/>
</g>
</svg>
